<?xml version="1.0" encoding="UTF-8" standalone="no"?>
<!-- Created with Inkscape (http://www.inkscape.org/) -->

<svg
   version="1.1"
   id="svg1"
   width="600"
   height="561.33331"
   viewBox="0 0 600 561.33331"
   sodipodi:docname="indigologofirsttry.svg"
   inkscape:version="1.3.2 (091e20e, 2023-11-25)"
   xmlns:inkscape="http://www.inkscape.org/namespaces/inkscape"
   xmlns:sodipodi="http://sodipodi.sourceforge.net/DTD/sodipodi-0.dtd"
   xmlns="http://www.w3.org/2000/svg"
   xmlns:svg="http://www.w3.org/2000/svg">
  <defs
     id="defs1" />
  <sodipodi:namedview
     id="namedview1"
     pagecolor="#ffffff"
     bordercolor="#000000"
     borderopacity="0.25"
     inkscape:showpageshadow="2"
     inkscape:pageopacity="0.0"
     inkscape:pagecheckerboard="0"
     inkscape:deskcolor="#d1d1d1"
     showgrid="false"
     inkscape:zoom="1.2713504"
     inkscape:cx="257.20682"
     inkscape:cy="266.6456"
     inkscape:window-width="1920"
     inkscape:window-height="1027"
     inkscape:window-x="497"
     inkscape:window-y="25"
     inkscape:window-maximized="0"
     inkscape:current-layer="g1" />
  <g
     inkscape:groupmode="layer"
     inkscape:label="Image"
     id="g1">
    <path
       style="display:inline;fill:#0c0a0c;stroke:none"
       d="m 303.08461,88.540287 c -5.01107,1.65759 -8.72701,11.25138 -11.37652,15.475833 -6.96967,11.11259 -13.98131,22.19942 -20.91565,33.33333 -2.76996,4.44747 -7.34154,9.57593 -8.70783,14.66667 -1.20792,4.50065 2.53455,6.1414 6.32357,5.60392 4.56769,-0.64795 18.41681,-5.65055 21.91101,-1.92903 2.21204,2.35591 1.42232,6.69958 1.42232,9.65844 0,8.34644 0.68614,17.02047 -0.0391,25.33334 -0.87305,10.00724 -22.55046,3.77771 -29.29425,5.62243 -9.03341,2.47103 -12.60579,15.99923 -21.33333,18.77263 -3.12551,0.9932 -6.10822,-3.1731 -8,-5.06173 -6.08273,-6.07255 -15.22543,-12.58679 -19.58488,-20 -3.37301,-5.73576 11.94525,-12.98027 15.57458,-15.8328 2.19064,-1.72181 4.88983,-4.47229 2.83848,-7.3488 -2.68666,-3.76741 -11.91375,-4.15792 -16.16152,-5.10132 -14.4673,-3.21313 -28.87878,-6.67948 -43.33333,-9.95007 -4.03493,-0.91296 -15.11528,-5.57532 -17.87808,-0.94808 -2.21823,3.71517 1.39024,11.90161 2.26183,15.84774 3.24412,14.68778 6.6858,29.33886 10.05041,44 0.93057,4.05493 1.56488,15.28999 6.26903,16.66512 9.11191,2.66361 11.82859,-20.22974 20.24692,-19.84001 2.75566,0.12756 5.27383,3.40869 7.04989,5.17541 5.12347,5.09648 10.25264,10.19121 15.33077,15.33281 1.7616,1.78361 5.158,4.46244 4.65533,7.33333 -1.4022,8.00855 -14.70365,13.37748 -18.34824,20.66667 -4.12179,8.24357 2.10701,19.61944 -1.46605,27.92747 -1.45918,3.3929 -5.82806,2.73901 -8.83848,2.73919 h -21.33333 c -2.73067,0 -6.8495,0.71243 -9.1214,-1.16152 -4.05098,-3.34141 0.44022,-16.3472 1.1749,-20.83848 0.44748,-2.73549 1.20128,-6.32621 -2.09259,-7.59464 -4.51757,-1.73967 -11.06277,4.3235 -14.62758,6.54372 -12.91496,8.0436 -25.73467,16.24188 -38.66666,24.25616 -3.49752,2.1675 -14.022159,6.47172 -13.558649,11.45937 0.42896,4.61575 8.785639,7.9985 12.225309,10.13015 12.93332,8.01512 25.75218,16.21285 38.66667,24.25616 3.52209,2.19361 11.63077,9.56572 15.96091,7.46759 9.12297,-4.42047 -6.7812,-23.98748 1.52469,-29.06583 2.29425,-1.40275 5.94484,-0.78601 8.5144,-0.78601 h 20.66667 c 2.98466,0 6.89182,-0.62903 8.93107,2.09875 4.7301,6.32721 -0.69413,19.75765 1.4506,27.23458 2.60415,9.07849 15.42023,12.73173 18.75979,21.33333 1.24401,3.20419 -2.51248,6.02678 -4.47531,8 l -14.66615,14.66667 c -1.98426,1.98336 -4.41394,5.32259 -7.32357,5.9187 -4.9318,1.01046 -11.54822,-12.52118 -14.11316,-15.91561 -1.73509,-2.2962 -4.56903,-5.26715 -7.71092,-3.3174 -3.70436,2.29881 -4.13853,12.03172 -4.99227,15.98098 -3.17505,14.68717 -6.52607,29.40702 -10.10957,43.99999 -0.96774,3.94084 -5.4367,14.58509 -0.93158,17.31429 3.81324,2.3101 11.847,-1.25602 15.84773,-2.12085 14.70535,-3.17895 29.32577,-6.77274 44,-10.09314 4.24878,-0.96138 15.35336,-1.44576 16.76595,-6.44649 0.82532,-2.92171 -2.08512,-4.97469 -4.10184,-6.45731 -3.49667,-2.57068 -15.97996,-8.60869 -15.63324,-13.53959 0.18851,-2.68108 3.22699,-4.91114 4.96913,-6.65691 l 15.33334,-15.33333 c 1.84057,-1.83675 4.37927,-5.30379 7.33333,-5.02262 7.85681,0.74768 13.7087,14.75765 20.66667,18.23661 7.9485,3.97424 19.14015,-1.98543 27.32047,1.28088 3.56228,1.42237 3.34475,4.94279 3.34619,8.1718 v 22 c 0,2.74609 0.74217,6.86657 -1.06893,9.1785 -3.35205,4.27902 -16.29567,-0.24939 -20.93107,-1.01387 -2.91933,-0.48153 -6.74784,-1.25204 -7.69856,2.53133 -1.16936,4.65344 4.69264,10.9609 6.99847,14.63737 8.08297,12.88765 16.13413,25.79651 24.24587,38.66666 2.25356,3.57553 6.43288,14.05127 11.7608,13.00513 4.52533,-0.88851 7.81973,-9.46948 10.06224,-13.00513 8.00797,-12.62569 15.96018,-25.29077 23.83642,-37.99999 2.21538,-3.57475 9.64848,-11.54785 7.33179,-15.92749 -4.60193,-8.69971 -23.13192,6.37846 -28.70884,-0.89401 -1.83122,-2.38798 -1.16152,-6.36454 -1.16152,-9.1785 v -21.33334 c 10e-4,-3.05871 -0.36902,-6.79768 2.7392,-8.54732 7.54545,-4.24739 19.22548,1.77438 27.2608,-1.18827 8.4816,-3.1272 12.09874,-15.55151 20.66666,-18.48405 3.23099,-1.10588 5.97139,2.22127 8,4.22221 5.14485,5.07471 10.23539,10.20837 15.3328,15.33077 1.83598,1.84497 5.29134,4.46207 5.36886,7.33077 0.13545,5.01306 -12.42831,11.04976 -16.0247,13.72221 -2.16508,1.60884 -4.75794,3.81941 -3.59774,6.87451 1.62089,4.26827 12.33008,4.91809 16.25411,5.78959 14.90426,3.31014 29.81071,6.68469 44.66667,10.20577 3.84041,0.91024 12.34183,4.57255 15.78808,1.67488 3.79374,-3.18986 -0.3905,-13.60522 -1.37089,-17.59773 -3.63883,-14.81852 -7.0531,-29.75252 -10.27726,-44.66667 -0.82381,-3.81081 -1.3138,-13.3751 -5.51184,-14.92077 -5.94157,-2.18765 -12.2489,11.09861 -15.01441,14.92028 -1.41459,1.95484 -3.3708,5.32483 -6.28088,4.39555 -2.60429,-0.83162 -4.80111,-3.86405 -6.66614,-5.72839 l -14.66666,-14.66667 c -1.99288,-1.99699 -5.7614,-4.73846 -4.7994,-8 2.43339,-8.25014 14.30485,-12.38128 18.11422,-20 3.93827,-7.87654 -2.12895,-19.18398 1.18005,-27.30401 1.40714,-3.45302 5.01652,-3.35738 8.17179,-3.36265 h 22.66667 c 2.86747,0 6.82064,-0.6356 9.04167,1.62243 6.10066,6.20228 -7.45537,22.39869 -0.18673,27.87242 4.17688,3.14547 13.00476,-4.80359 16.47839,-6.95628 12.48629,-7.73808 24.90625,-15.5852 37.33334,-23.41768 3.77535,-2.37952 11.81832,-5.46244 13.49487,-9.84979 2.18742,-5.72414 -9.12838,-10.17894 -12.82821,-12.47634 -11.80863,-7.33254 -23.55672,-14.77537 -35.33333,-22.16152 -4.5673,-2.86456 -10.54521,-8.44867 -15.99947,-9.13735 -4.34741,-0.54891 -5.03967,3.05416 -4.65743,6.50411 0.55477,5.00726 5.3383,16.92961 2.24487,21.23458 -1.97424,2.74745 -5.98205,2.09875 -8.9213,2.09875 -8.54688,0 -19.72392,1.92749 -27.98971,-0.21193 -3.70878,-0.95994 -3.9928,-4.57131 -4.00976,-7.78807 -0.0352,-6.67633 0.92663,-14.0707 -0.0993,-20.66666 -1.48954,-9.5767 -16.90397,-13.22673 -18.99898,-22.47632 -0.87008,-3.84147 6.73039,-9.15633 9.09774,-11.52368 4.22123,-4.22123 8.40905,-8.47905 12.66666,-12.66358 1.52157,-1.49548 3.81376,-4.36112 6.27316,-3.84464 5.04073,1.05859 10.1595,12.6003 13.16361,16.49589 2.03984,2.64518 5.37638,5.20304 8.18718,1.8575 3.23693,-3.85274 3.58638,-12.3492 4.65897,-17.1785 3.0647,-13.799 6.36463,-27.54676 9.48409,-41.33334 0.92204,-4.07503 5.59339,-15.20918 0.80091,-17.97892 -3.76632,-2.17667 -11.94629,1.4843 -15.90125,2.36267 -14.68742,3.26205 -29.32621,6.72974 -44,10.04993 -4.07385,0.92179 -15.17578,1.43005 -16.36471,6.26229 -1.42175,5.77864 11.15829,11.65079 15.03085,14.44397 1.93339,1.39449 5.26371,3.3424 4.68672,6.19596 -0.53344,2.63831 -3.55721,4.86544 -5.35286,6.6641 l -14.66667,14.66667 c -1.84053,1.83744 -4.44193,5.42179 -7.33333,5.42179 -2.66052,0 -4.96602,-3.06396 -6.66667,-4.75565 -4.36417,-4.34119 -9.11649,-11.10502 -14.66665,-13.88013 -7.94841,-3.9742 -19.15092,2.04159 -27.30402,-1.28088 -3.45306,-1.40715 -3.35738,-5.01652 -3.36265,-8.1718 v -21.33333 c 0,-2.74752 -0.6934,-6.73132 0.78601,-9.18827 3.05982,-5.08159 17.13631,-0.19332 21.88066,0.57511 3.02982,0.49076 7.06811,0.68156 7.56893,-3.38993 0.56018,-4.5544 -5.48283,-11.01668 -7.78138,-14.66358 -7.97095,-12.64685 -15.87836,-25.33618 -23.82095,-38 -2.19704,-3.503013 -6.60577,-14.579224 -11.95681,-12.809163 M 272.40818,220.97189 c 3.41758,-0.93486 16.3608,-1.84347 18.54732,1.33333 3.0317,4.40479 0.78601,16.44556 0.78601,21.7109 0,4.06087 2.19902,18.04555 -2.70575,19.55865 -4.38035,1.35132 -10.61975,-7.55084 -13.29425,-10.22532 -3.84019,-3.84021 -17.26896,-13.37508 -16.30503,-19.33333 0.55387,-3.42363 4.65485,-6.37944 6.9717,-8.66411 1.75612,-1.73173 3.54041,-3.70731 6,-4.38012 m 46.7392,0.11316 c 8.62512,-3.58016 18.72752,0.38643 24.59413,6.2644 2.02633,2.03023 5.68847,4.74451 5.33537,8 -0.34835,3.21155 -3.88932,5.88375 -6.00203,8 -5.55587,5.56519 -13.77065,17.71399 -21.33283,20.1425 -3.8065,1.22241 -5.2279,-2.43315 -5.32355,-5.47583 -0.28578,-9.09184 -0.0103,-18.23666 -0.0103,-27.33334 0,-3.08837 -0.82306,-8.1191 2.7392,-9.59773 m -80.07253,33.24947 c 3.0181,-0.63672 5.36763,1.78784 7.33333,3.69189 4.96246,4.80678 9.78139,9.7711 14.66667,14.65637 l 20.66666,20.66667 c 3.07341,3.0734 7.91702,6.50936 9.50515,10.66667 1.38867,3.63519 0.49485,8.82505 0.49485,12.66666 v 26.66667 25.33333 c -1.8e-4,2.79832 0.75295,7.46907 -2.73919,8.45473 -20.71879,5.84792 -34.52454,-16.38513 -47.26081,-29.1214 -4.64508,-4.64508 -13.12825,-10.44456 -15.50514,-16.66666 -1.32327,-3.46397 -0.49486,-8.34239 -0.49486,-12 v -24.66667 c 0,-12.7586 -2.90663,-25.80629 6.66667,-35.3328 1.87254,-1.8634 3.94651,-4.44157 6.66667,-5.01546 m 127.99999,0.0967 c 4.00122,-1.30209 7.59025,3.83699 10,6.25154 8.68314,8.7005 5.33333,24.33411 5.33333,36 v 23.33333 c 0,3.43553 0.7998,8.07304 -0.40226,11.33334 -1.34497,3.64791 -5.58378,6.65271 -8.26441,9.33333 l -19.33333,19.33333 c -5.13298,5.13298 -12.20364,15.5732 -19.33332,17.61833 -3.97809,1.14111 -14.76976,1.74868 -17.59774,-1.80402 -2.1711,-2.72747 -1.06893,-8.53025 -1.06893,-11.81431 v -29.33331 c 0,-8.56413 -2.56333,-21.99444 0.49485,-30 1.58814,-4.15735 6.43175,-7.59326 9.50515,-10.66666 l 20.66667,-20.66667 c 5.22533,-5.22536 12.91108,-16.61129 19.99999,-18.91821 z"
       id="path1823" />
    <path
       style="fill:#000000"
       d="M 162.18298,108.31715 Z"
       id="path1" />
  </g>
</svg>
